{
    "accessors" : [
        {
            "bufferView" : 0, 
            "componentType" : 5121, 
            "count" : 402, 
            "max" : [
                71
            ], 
            "min" : [
                0
            ], 
            "type" : "SCALAR"
        }, 
        {
            "bufferView" : 1, 
            "componentType" : 5126, 
            "count" : 72, 
            "max" : [
                1.000000238418579, 
                1.0, 
                1.000000238418579
            ], 
            "min" : [
                -1.000000238418579, 
                -1.0, 
                -1.000000238418579
            ], 
            "type" : "VEC3"
        }, 
        {
            "bufferView" : 2, 
            "componentType" : 5126, 
            "count" : 72, 
            "max" : [
                0.9475691914558411, 
                0.8031556010246277, 
                0.8424329161643982
            ], 
            "min" : [
                -0.696218729019165, 
                -0.9982909560203552, 
                -0.8424329161643982
            ], 
            "type" : "VEC3"
        }, 
        {
            "bufferView" : 3, 
            "componentType" : 5126, 
            "count" : 72, 
            "max" : [
                1.0, 
                1.0
            ], 
            "min" : [
                0.0, 
                0.0
            ], 
            "type" : "VEC2"
        }, 
        {
            "bufferView" : 4, 
            "componentType" : 5126, 
            "count" : 1, 
            "max" : [
                4.125
            ], 
            "min" : [
                4.125
            ], 
            "type" : "SCALAR"
        }, 
        {
            "bufferView" : 5, 
            "componentType" : 5126, 
            "count" : 3, 
            "max" : [
                0.0, 
                0.0, 
                -0.0
            ], 
            "min" : [
                0.0, 
                0.0, 
                -0.0
            ], 
            "type" : "VEC3"
        }, 
        {
            "bufferView" : 6, 
            "componentType" : 5126, 
            "count" : 100, 
            "max" : [
                4.125
            ], 
            "min" : [
                0.0
            ], 
            "type" : "SCALAR"
        }, 
        {
            "bufferView" : 7, 
            "componentType" : 5126, 
            "count" : 100, 
            "max" : [
                0.0, 
                0.9999619126319885, 
                -0.0, 
                1.0
            ], 
            "min" : [
                0.0, 
                0.0, 
                -0.0, 
                -0.9998477101325989
            ], 
            "type" : "VEC4"
        }
    ], 
    "animations" : [
        {
            "channels" : [
                {
                    "sampler" : 0, 
                    "target" : {
                        "node" : 1, 
                        "path" : "translation"
                    }
                }, 
                {
                    "sampler" : 1, 
                    "target" : {
                        "node" : 1, 
                        "path" : "rotation"
                    }
                }
            ], 
            "samplers" : [
                {
                    "input" : 4, 
                    "interpolation" : "CUBICSPLINE", 
                    "output" : 5
                }, 
                {
                    "input" : 6, 
                    "interpolation" : "LINEAR", 
                    "output" : 7
                }
            ]
        }
    ], 
    "asset" : {
        "generator" : "Khronos Blender glTF 2.0 exporter", 
        "version" : "2.0"
    }, 
    "bufferViews" : [
        {
            "buffer" : 0, 
            "byteLength" : 402, 
            "byteOffset" : 0, 
            "target" : 34963
        }, 
        {
            "buffer" : 0, 
            "byteLength" : 864, 
            "byteOffset" : 404, 
            "target" : 34962
        }, 
        {
            "buffer" : 0, 
            "byteLength" : 864, 
            "byteOffset" : 1268, 
            "target" : 34962
        }, 
        {
            "buffer" : 0, 
            "byteLength" : 576, 
            "byteOffset" : 2132, 
            "target" : 34962
        }, 
        {
            "buffer" : 0, 
            "byteLength" : 4, 
            "byteOffset" : 2708
        }, 
        {
            "buffer" : 0, 
            "byteLength" : 36, 
            "byteOffset" : 2712
        }, 
        {
            "buffer" : 0, 
            "byteLength" : 400, 
            "byteOffset" : 2748
        }, 
        {
            "buffer" : 0, 
            "byteLength" : 1600, 
            "byteOffset" : 3148
        }
    ], 
    "buffers" : [
        {
            "byteLength" : 4748, 
            "uri" : "creeper_coin.bin"
        }
    ], 
    "meshes" : [
        {
            "name" : "Cube", 
            "primitives" : [
                {
                    "attributes" : {
                        "NORMAL" : 2, 
                        "POSITION" : 1, 
                        "TEXCOORD_0" : 3
                    }, 
                    "indices" : 0
                }
            ]
        }
    ], 
    "nodes" : [
        {
            "name" : "Camera", 
            "rotation" : [
                0.5022706985473633, 
                0.49773722887039185, 
                -0.5006135106086731, 
                0.4993676543235779
            ], 
            "scale" : [
                0.9999998211860657, 
                0.9999998211860657, 
                0.9999999403953552
            ], 
            "translation" : [
                2.4451611042022705, 
                -0.012331373989582062, 
                0.008995489217340946
            ]
        }, 
        {
            "mesh" : 0, 
            "name" : "Cube", 
            "scale" : [
                0.10000002384185791, 
                1.0, 
                1.0
            ]
        }
    ], 
    "scene" : 0, 
    "scenes" : [
        {
            "extras" : {
                "rpr_data" : {
                    "environment" : {
                        "ibl" : {
                            "maps" : {}
                        }
                    }
                }
            }, 
            "name" : "Scene", 
            "nodes" : [
                1, 
                0
            ]
        }
    ]
}
