# Blender v2.79 (sub 0) OBJ File: 'creeper_face.blend'
# www.blender.org
mtllib creeper_coin.mtl
o Cube
v 0.094563 -1.000000 -0.032524
v -0.230679 0.000000 -0.978155
v 0.031111 -0.980785 -0.217008
v -0.029902 -0.923880 -0.394401
v -0.086132 -0.831470 -0.557888
v -0.135418 -0.707107 -0.701186
v -0.175866 -0.555570 -0.818787
v -0.205922 -0.382683 -0.906173
v -0.224430 -0.195090 -0.959985
v 0.419806 0.000000 0.913107
v 0.094563 -1.000000 -0.032524
v 0.413556 -0.195090 0.894936
v 0.395048 -0.382683 0.841125
v 0.364992 -0.555570 0.753739
v 0.324544 -0.707107 0.636138
v 0.275258 -0.831470 0.492840
v 0.219028 -0.923880 0.329353
v 0.158015 -0.980785 0.151959
v -0.094563 -1.000000 0.032524
v 0.230679 0.000000 0.978155
v -0.031111 -0.980785 0.217007
v 0.029902 -0.923880 0.394401
v 0.086132 -0.831470 0.557888
v 0.135418 -0.707107 0.701186
v 0.175866 -0.555570 0.818787
v 0.205922 -0.382683 0.906173
v 0.224430 -0.195090 0.959985
v -0.419806 0.000000 -0.913107
v -0.094563 -1.000000 0.032524
v -0.413556 -0.195090 -0.894937
v -0.395048 -0.382683 -0.841125
v -0.364992 -0.555570 -0.753739
v -0.324544 -0.707107 -0.636138
v -0.275258 -0.831470 -0.492840
v -0.219028 -0.923880 -0.329353
v -0.158015 -0.980785 -0.151959
v -0.230679 0.000000 -0.978155
v 0.094563 1.000000 -0.032524
v -0.224430 0.195090 -0.959984
v -0.205922 0.382683 -0.906173
v -0.175866 0.555570 -0.818787
v -0.135418 0.707107 -0.701186
v -0.086132 0.831470 -0.557888
v -0.029902 0.923880 -0.394401
v 0.031112 0.980785 -0.217007
v 0.094563 1.000000 -0.032524
v 0.419806 0.000000 0.913107
v 0.158015 0.980785 0.151960
v 0.219028 0.923880 0.329353
v 0.275258 0.831470 0.492840
v 0.324544 0.707107 0.636138
v 0.364993 0.555570 0.753739
v 0.395048 0.382683 0.841125
v 0.413556 0.195090 0.894937
v 0.230679 0.000000 0.978155
v -0.094563 1.000000 0.032524
v 0.224430 0.195090 0.959985
v 0.205922 0.382683 0.906173
v 0.175866 0.555570 0.818787
v 0.135418 0.707107 0.701186
v 0.086132 0.831470 0.557888
v 0.029902 0.923880 0.394401
v -0.031112 0.980785 0.217007
v -0.094563 1.000000 0.032524
v -0.419806 0.000000 -0.913107
v -0.158015 0.980785 -0.151959
v -0.219028 0.923880 -0.329353
v -0.275258 0.831470 -0.492840
v -0.324544 0.707107 -0.636138
v -0.364992 0.555570 -0.753739
v -0.395048 0.382683 -0.841125
v -0.413556 0.195090 -0.894937
vt 1.000000 0.500000
vt 1.000000 0.500000
vt 1.000000 0.500000
vt 1.000000 0.500000
vt 0.500000 0.000000
vt 0.500000 0.000000
vt 0.500000 0.000000
vt 0.500000 0.000000
vt 0.402455 0.009607
vt 0.308658 0.038060
vt 0.222215 0.084265
vt 0.146447 0.146447
vt 0.084265 0.222215
vt 0.038060 0.308658
vt 0.009607 0.402455
vt 0.000000 0.500000
vt 0.000000 0.500000
vt 0.009607 0.597545
vt 0.038060 0.691342
vt 0.084265 0.777785
vt 0.146447 0.853553
vt 0.222215 0.915735
vt 0.308658 0.961940
vt 0.402455 0.990393
vt 0.500000 1.000000
vt 0.500000 1.000000
vt 0.597545 0.990393
vt 0.691342 0.961940
vt 0.777785 0.915735
vt 0.853553 0.853553
vt 0.915735 0.777785
vt 0.961940 0.691342
vt 0.990393 0.597545
vt 0.990393 0.402455
vt 0.961940 0.308658
vt 0.915735 0.222215
vt 0.853553 0.146447
vt 0.777785 0.084265
vt 0.691342 0.038060
vt 0.597545 0.009607
vt 0.500000 1.000000
vt 0.500000 1.000000
vt 0.000000 0.500000
vt 0.000000 0.500000
vt 0.597545 0.009607
vt 0.691342 0.038060
vt 0.777785 0.084265
vt 0.853553 0.146447
vt 0.915735 0.222215
vt 0.961940 0.308658
vt 0.990393 0.402455
vt 0.009607 0.402455
vt 0.038060 0.308658
vt 0.084265 0.222215
vt 0.146447 0.146447
vt 0.222215 0.084265
vt 0.308658 0.038060
vt 0.402455 0.009607
vt 0.990392 0.597545
vt 0.961940 0.691342
vt 0.915735 0.777785
vt 0.853553 0.853553
vt 0.777785 0.915735
vt 0.691341 0.961940
vt 0.597545 0.990393
vt 0.402455 0.990393
vt 0.308658 0.961940
vt 0.222215 0.915735
vt 0.146446 0.853553
vt 0.084265 0.777785
vt 0.038060 0.691342
vt 0.009607 0.597545
vn 0.9098 0.1433 -0.3895
vn 0.9098 -0.1433 -0.3895
vn -0.9545 -0.0737 0.2889
vn -0.9545 0.0737 0.2889
vn 0.0187 -0.8800 -0.4746
vn 0.0543 -0.9128 -0.4046
vn -0.7415 -0.6706 -0.0224
vn -0.7503 -0.6542 -0.0951
vn -0.6022 -0.7139 0.3573
vn -0.5578 -0.6725 0.4864
vn -0.5169 -0.6052 0.6054
vn -0.4810 -0.5147 0.7097
vn -0.4516 -0.4044 0.7953
vn -0.4297 -0.2785 0.8589
vn -0.4162 -0.1420 0.8981
vn -0.2644 -0.0417 0.9635
vn -0.2644 0.0417 0.9635
vn -0.4162 0.1420 0.8981
vn -0.4297 0.2785 0.8589
vn -0.4516 0.4044 0.7953
vn -0.4810 0.5147 0.7097
vn -0.5169 0.6052 0.6054
vn -0.5578 0.6725 0.4864
vn -0.6022 0.7139 0.3573
vn -0.2352 -0.0038 0.9719
vn -0.7809 -0.0787 -0.6196
vn -0.6946 0.7139 0.0887
vn -0.7390 0.6725 -0.0404
vn -0.7799 0.6052 -0.1594
vn -0.8158 0.5147 -0.2637
vn -0.8452 0.4044 -0.3493
vn -0.8671 0.2785 -0.4129
vn -0.8806 0.1420 -0.4520
vn -0.8806 -0.1420 -0.4520
vn -0.8671 -0.2785 -0.4129
vn -0.8452 -0.4044 -0.3493
vn -0.8158 -0.5147 -0.2637
vn -0.7799 -0.6052 -0.1594
vn -0.7390 -0.6725 -0.0404
vn -0.6946 -0.7139 0.0887
vn 0.9260 -0.0561 -0.3734
vn 0.9600 0.0510 -0.2752
vn 0.6170 -0.0476 0.7855
vn 0.6170 0.0476 0.7855
vn 0.6022 -0.7139 -0.3573
vn 0.5578 -0.6725 -0.4864
vn 0.5169 -0.6052 -0.6054
vn 0.4810 -0.5147 -0.7097
vn 0.4516 -0.4044 -0.7953
vn 0.4297 -0.2785 -0.8589
vn 0.4162 -0.1420 -0.8981
vn 0.8806 -0.1420 0.4520
vn 0.8671 -0.2785 0.4129
vn 0.8452 -0.4044 0.3493
vn 0.8158 -0.5147 0.2637
vn 0.7799 -0.6052 0.1594
vn 0.7390 -0.6725 0.0404
vn 0.6946 -0.7139 -0.0887
vn 0.4162 0.1420 -0.8981
vn 0.4297 0.2785 -0.8589
vn 0.4516 0.4044 -0.7953
vn 0.4810 0.5147 -0.7097
vn 0.5169 0.6052 -0.6054
vn 0.5578 0.6725 -0.4864
vn 0.6022 0.7139 -0.3573
vn 0.6946 0.7139 -0.0887
vn 0.7390 0.6725 0.0404
vn 0.7799 0.6052 0.1594
vn 0.8158 0.5147 0.2637
vn 0.8452 0.4044 0.3493
vn 0.8671 0.2785 0.4129
vn 0.8806 0.1420 0.4521
usemtl Material
s 1
f 37/1/1 2/2/2 28/3/3 65/4/4
f 1/5/5 11/6/6 19/7/7 29/8/8
f 19/7/7 21/9/9 22/10/10 23/11/11 24/12/12 25/13/13 26/14/14 27/15/15 20/16/16 55/17/17 57/18/18 58/19/19 59/20/20 60/21/21 61/22/22 62/23/23 63/24/24 56/25/25 64/26/26 66/27/27 67/28/28 68/29/29 69/30/30 70/31/31 71/32/32 72/33/33 65/4/4 28/3/3 30/34/34 31/35/35 32/36/36 33/37/37 34/38/38 35/39/39 36/40/40 29/8/8
f 38/41/41 64/26/26 56/25/25 46/42/42
f 10/43/43 47/44/44 55/17/17 20/16/16
f 1/5/5 29/8/8 36/40/40 3/45/45
f 3/45/45 36/40/40 35/39/39 4/46/46
f 4/46/46 35/39/39 34/38/38 5/47/47
f 5/47/47 34/38/38 33/37/37 6/48/48
f 6/48/48 33/37/37 32/36/36 7/49/49
f 7/49/49 32/36/36 31/35/35 8/50/50
f 8/50/50 31/35/35 30/34/34 9/51/51
f 9/51/51 30/34/34 28/3/3 2/2/2
f 10/43/43 20/16/16 27/15/15 12/52/52
f 12/52/52 27/15/15 26/14/14 13/53/53
f 13/53/53 26/14/14 25/13/13 14/54/54
f 14/54/54 25/13/13 24/12/12 15/55/55
f 15/55/55 24/12/12 23/11/11 16/56/56
f 16/56/56 23/11/11 22/10/10 17/57/57
f 17/57/57 22/10/10 21/9/9 18/58/58
f 18/58/58 21/9/9 19/7/7 11/6/6
f 37/1/1 65/4/4 72/33/33 39/59/59
f 39/59/59 72/33/33 71/32/32 40/60/60
f 40/60/60 71/32/32 70/31/31 41/61/61
f 41/61/61 70/31/31 69/30/30 42/62/62
f 42/62/62 69/30/30 68/29/29 43/63/63
f 43/63/63 68/29/29 67/28/28 44/64/64
f 44/64/64 67/28/28 66/27/27 45/65/65
f 45/65/65 66/27/27 64/26/26 38/41/41
f 46/42/42 56/25/25 63/24/24 48/66/66
f 48/66/66 63/24/24 62/23/23 49/67/67
f 49/67/67 62/23/23 61/22/22 50/68/68
f 50/68/68 61/22/22 60/21/21 51/69/69
f 51/69/69 60/21/21 59/20/20 52/70/70
f 52/70/70 59/20/20 58/19/19 53/71/71
f 53/71/71 58/19/19 57/18/18 54/72/72
f 54/72/72 57/18/18 55/17/17 47/44/44
f 1/5/5 3/45/45 4/46/46 5/47/47 6/48/48 7/49/49 8/50/50 9/51/51 2/2/2 37/1/1 39/59/59 40/60/60 41/61/61 42/62/62 43/63/63 44/64/64 45/65/65 38/41/41 46/42/42 48/66/66 49/67/67 50/68/68 51/69/69 52/70/70 53/71/71 54/72/72 47/44/44 10/43/43 12/52/52 13/53/53 14/54/54 15/55/55 16/56/56 17/57/57 18/58/58 11/6/6
