{
    "asset": {
        "generator": "COLLADA2GLTF",
        "version": "2.0"
    },
    "scenes": [
        {
            "nodes": [
                0
            ]
        }
    ],
    "scene": 0,
    "nodes": [
        {
            "children": [
                1
            ],
            "matrix": [
                1.0,
                0.0,
                0.0,
                0.0,
                0.0,
                0.0,
                -1.0,
                0.0,
                0.0,
                1.0,
                0.0,
                0.0,
                0.0,
                0.0,
                0.0,
                1.0
            ],
            "name": "Z_UP"
        },
        {
            "mesh": 0,
            "children": [
                5,
                4,
                2
            ],
            "matrix": [
                0.75,
                0.0,
                0.0,
                0.0,
                0.0,
                2.0,
                0.0,
                0.0,
                0.0,
                0.0,
                1.0,
                0.0,
                0.0,
                0.0,
                0.0,
                1.0
            ],
            "name": "Boom_Box"
        },
        {
            "mesh": 1,
            "children": [
                3
            ],
            "matrix": [
                0.3333333134651184,
                0.0,
                0.0,
                0.0,
                0.0,
                0.2874999940395355,
                0.0,
                0.0,
                0.0,
                0.0,
                0.75,
                0.0,
                0.7143911123275757,
                0.0,
                -0.2369986027479172,
                1.0
            ],
            "name": "Console"
        },
        {
            "mesh": 2,
            "matrix": [
                0.20000000298023225,
                0.0,
                0.0,
                0.0,
                0.0,
                0.1304347962141037,
                0.0,
                0.0,
                0.0,
                0.0,
                0.13333329558372498,
                0.0,
                1.0255839824676514,
                -0.7440125346183777,
                0.6428074836730957,
                1.0
            ],
            "name": "Buttons"
        },
        {
            "mesh": 3,
            "matrix": [
                -1.411980008469982e-7,
                0.32500001788139346,
                1.937149995967502e-8,
                0.0,
                1.411980008469982e-7,
                -9.68574997983751e-9,
                0.6499999761581421,
                0.0,
                0.13333329558372498,
                8.146029628619545e-9,
                -1.6292100113446396e-8,
                0.0,
                1.133551001548767,
                0.0,
                -0.2369986027479172,
                1.0
            ],
            "name": "Speaker"
        },
        {
            "mesh": 4,
            "matrix": [
                0.13333329558372498,
                0.0,
                0.0,
                0.0,
                0.0,
                1.0,
                0.0,
                0.0,
                0.0,
                0.0,
                0.10000000149011612,
                0.0,
                0.00021751699387095869,
                0.0,
                0.9001219868659973,
                1.0
            ],
            "name": "Handle"
        }
    ],
    "meshes": [
        {
            "primitives": [
                {
                    "attributes": {
                        "NORMAL": 1,
                        "POSITION": 2
                    },
                    "indices": 0,
                    "mode": 4,
                    "material": 0
                }
            ],
            "name": "Cube.005"
        },
        {
            "primitives": [
                {
                    "attributes": {
                        "NORMAL": 4,
                        "POSITION": 5
                    },
                    "indices": 3,
                    "mode": 4,
                    "material": 1
                },
                {
                    "attributes": {
                        "NORMAL": 7,
                        "POSITION": 8
                    },
                    "indices": 6,
                    "mode": 4,
                    "material": 2
                }
            ],
            "name": "Cube.008"
        },
        {
            "primitives": [
                {
                    "attributes": {
                        "NORMAL": 10,
                        "POSITION": 11
                    },
                    "indices": 9,
                    "mode": 4
                }
            ],
            "name": "Cube.009"
        },
        {
            "primitives": [
                {
                    "attributes": {
                        "NORMAL": 13,
                        "POSITION": 14
                    },
                    "indices": 12,
                    "mode": 4
                }
            ],
            "name": "Cylinder"
        },
        {
            "primitives": [
                {
                    "attributes": {
                        "NORMAL": 16,
                        "POSITION": 17
                    },
                    "indices": 15,
                    "mode": 4
                }
            ],
            "name": "Cube.007"
        }
    ],
    "accessors": [
        {
            "bufferView": 0,
            "byteOffset": 0,
            "componentType": 5123,
            "count": 108,
            "max": [
                55
            ],
            "min": [
                0
            ],
            "type": "SCALAR"
        },
        {
            "bufferView": 1,
            "byteOffset": 0,
            "componentType": 5126,
            "count": 56,
            "max": [
                1.0,
                1.0,
                1.0
            ],
            "min": [
                -1.0,
                -1.0,
                -1.0
            ],
            "type": "VEC3"
        },
        {
            "bufferView": 1,
            "byteOffset": 672,
            "componentType": 5126,
            "count": 56,
            "max": [
                1.0002180337905884,
                1.0,
                1.0001219511032105
            ],
            "min": [
                -0.9997825026512146,
                -1.0,
                -0.9998779892921448
            ],
            "type": "VEC3"
        },
        {
            "bufferView": 0,
            "byteOffset": 216,
            "componentType": 5123,
            "count": 936,
            "max": [
                266
            ],
            "min": [
                0
            ],
            "type": "SCALAR"
        },
        {
            "bufferView": 1,
            "byteOffset": 1344,
            "componentType": 5126,
            "count": 267,
            "max": [
                1.0,
                1.0,
                1.0
            ],
            "min": [
                -1.0,
                -1.0,
                -1.0
            ],
            "type": "VEC3"
        },
        {
            "bufferView": 1,
            "byteOffset": 4548,
            "componentType": 5126,
            "count": 267,
            "max": [
                1.0,
                1.0,
                1.0
            ],
            "min": [
                -1.0,
                -1.0,
                -1.0
            ],
            "type": "VEC3"
        },
        {
            "bufferView": 0,
            "byteOffset": 2088,
            "componentType": 5123,
            "count": 144,
            "max": [
                34
            ],
            "min": [
                0
            ],
            "type": "SCALAR"
        },
        {
            "bufferView": 1,
            "byteOffset": 7752,
            "componentType": 5126,
            "count": 35,
            "max": [
                1.0,
                0.0,
                0.0
            ],
            "min": [
                1.0,
                0.0,
                0.0
            ],
            "type": "VEC3"
        },
        {
            "bufferView": 1,
            "byteOffset": 8172,
            "componentType": 5126,
            "count": 35,
            "max": [
                0.908589005470276,
                0.8750000596046448,
                0.3750000298023224
            ],
            "min": [
                0.908589005470276,
                -0.8750000596046448,
                -0.3750000298023224
            ],
            "type": "VEC3"
        },
        {
            "bufferView": 0,
            "byteOffset": 2376,
            "componentType": 5123,
            "count": 300,
            "max": [
                185
            ],
            "min": [
                0
            ],
            "type": "SCALAR"
        },
        {
            "bufferView": 1,
            "byteOffset": 8592,
            "componentType": 5126,
            "count": 186,
            "max": [
                0.9159526824951172,
                1.0,
                1.0
            ],
            "min": [
                -1.0,
                -1.0,
                -1.0
            ],
            "type": "VEC3"
        },
        {
            "bufferView": 1,
            "byteOffset": 10824,
            "componentType": 5126,
            "count": 186,
            "max": [
                1.1050360202789309,
                12.40000057220459,
                1.0
            ],
            "min": [
                -0.8949635028839111,
                -1.0,
                -1.0
            ],
            "type": "VEC3"
        },
        {
            "bufferView": 0,
            "byteOffset": 2976,
            "componentType": 5123,
            "count": 1512,
            "max": [
                1071
            ],
            "min": [
                0
            ],
            "type": "SCALAR"
        },
        {
            "bufferView": 1,
            "byteOffset": 13056,
            "componentType": 5126,
            "count": 1072,
            "max": [
                0.9951848983764648,
                0.9951848983764648,
                1.0
            ],
            "min": [
                -0.9951848983764648,
                -0.99518483877182,
                -1.0
            ],
            "type": "VEC3"
        },
        {
            "bufferView": 1,
            "byteOffset": 25920,
            "componentType": 5126,
            "count": 1072,
            "max": [
                3.003767967224121,
                1.0,
                0.06659311056137085
            ],
            "min": [
                -3.003767967224121,
                -1.0,
                -1.1575989723205569
            ],
            "type": "VEC3"
        },
        {
            "bufferView": 0,
            "byteOffset": 6000,
            "componentType": 5123,
            "count": 240,
            "max": [
                97
            ],
            "min": [
                0
            ],
            "type": "SCALAR"
        },
        {
            "bufferView": 1,
            "byteOffset": 38784,
            "componentType": 5126,
            "count": 98,
            "max": [
                1.0,
                1.0,
                1.0
            ],
            "min": [
                -1.0,
                -1.0,
                -1.0
            ],
            "type": "VEC3"
        },
        {
            "bufferView": 1,
            "byteOffset": 39960,
            "componentType": 5126,
            "count": 98,
            "max": [
                1.0,
                1.0499999523162842,
                11.321040153503418
            ],
            "min": [
                -1.0,
                -1.0499999523162842,
                -1.5
            ],
            "type": "VEC3"
        }
    ],
    "materials": [
        {
            "pbrMetallicRoughness": {
                "baseColorFactor": [
                    0.6399999856948853,
                    0.014632510021328926,
                    0.02149982936680317,
                    1.0
                ],
                "metallicFactor": 0.0
            },
            "emissiveFactor": [
                0.0,
                0.0,
                0.0
            ],
            "name": "Material_003-effect"
        },
        {
            "pbrMetallicRoughness": {
                "baseColorFactor": [
                    0.6399999856948853,
                    0.6399999856948853,
                    0.6399999856948853,
                    1.0
                ],
                "metallicFactor": 0.0
            },
            "emissiveFactor": [
                0.0,
                0.0,
                0.0
            ],
            "name": "Boom_Box_Console-effect"
        },
        {
            "pbrMetallicRoughness": {
                "baseColorFactor": [
                    0.0,
                    0.0,
                    0.0,
                    1.0
                ],
                "metallicFactor": 0.0
            },
            "emissiveFactor": [
                0.0,
                0.0,
                0.0
            ],
            "name": "Boom_Box_Recess_Panel-effect"
        }
    ],
    "bufferViews": [
        {
            "buffer": 0,
            "byteOffset": 41136,
            "byteLength": 6480,
            "target": 34963
        },
        {
            "buffer": 0,
            "byteOffset": 0,
            "byteLength": 41136,
            "byteStride": 12,
            "target": 34962
        }
    ],
    "buffers": [
        {
            "byteLength": 47616,
            "uri": "data:application/octet-stream;base64,"
        }
    ]
}
