{
    "asset": {
        "generator": "COLLADA2GLTF",
        "version": "2.0"
    },
    "scenes": [
        {
            "nodes": [
                0
            ]
        }
    ],
    "scene": 0,
    "nodes": [
        {
            "children": [
                2,
                1
            ],
            "matrix": [
                1.0,
                0.0,
                0.0,
                0.0,
                0.0,
                0.0,
                -1.0,
                0.0,
                0.0,
                1.0,
                0.0,
                0.0,
                0.0,
                0.0,
                0.0,
                1.0
            ],
            "name": "Z_UP"
        },
        {
            "mesh": 0,
            "name": "Solid_001"
        },
        {
            "matrix": [
                0.6858804821968079,
                0.7276338338851929,
                -0.010816779918968678,
                0.0,
                -0.3173701167106629,
                0.31246861815452578,
                0.8953431844711304,
                0.0,
                0.6548619270324707,
                -0.6106656193733215,
                0.4452454149723053,
                0.0,
                7.4811320304870609,
                -6.507639884948731,
                5.34366512298584,
                1.0
            ],
            "camera": 0,
            "name": "Camera"
        }
    ],
    "cameras": [
        {
            "perspective": {
                "yfov": 0.4823747575283051,
                "zfar": 100.0,
                "znear": 0.10000000149011612
            },
            "type": "perspective",
            "name": "Camera"
        }
    ],
    "meshes": [
        {
            "primitives": [
                {
                    "attributes": {
                        "NORMAL": 1,
                        "POSITION": 2
                    },
                    "indices": 0,
                    "mode": 4,
                    "material": 0
                },
                {
                    "attributes": {
                        "NORMAL": 4,
                        "POSITION": 5
                    },
                    "indices": 3,
                    "mode": 4,
                    "material": 1
                }
            ],
            "name": "Solid.001"
        }
    ],
    "accessors": [
        {
            "bufferView": 0,
            "byteOffset": 0,
            "componentType": 5123,
            "count": 65160,
            "max": [
                10879
            ],
            "min": [
                0
            ],
            "type": "SCALAR"
        },
        {
            "bufferView": 1,
            "byteOffset": 0,
            "componentType": 5126,
            "count": 10880,
            "max": [
                0.999542236328125,
                0.999542236328125,
                0.999969482421875
            ],
            "min": [
                -0.999542236328125,
                -0.999542236328125,
                -0.999542236328125
            ],
            "type": "VEC3"
        },
        {
            "bufferView": 1,
            "byteOffset": 130560,
            "componentType": 5126,
            "count": 10880,
            "max": [
                1.0063400268554688,
                1.0063400268554688,
                1.0063400268554688
            ],
            "min": [
                -1.0063400268554688,
                -1.0063400268554688,
                -1.0063400268554688
            ],
            "type": "VEC3"
        },
        {
            "bufferView": 0,
            "byteOffset": 130320,
            "componentType": 5123,
            "count": 32580,
            "max": [
                5471
            ],
            "min": [
                0
            ],
            "type": "SCALAR"
        },
        {
            "bufferView": 1,
            "byteOffset": 261120,
            "componentType": 5126,
            "count": 5472,
            "max": [
                0.9833369255065918,
                0.9833369255065918,
                0.999969482421875
            ],
            "min": [
                -0.9833369255065918,
                -0.9833369255065918,
                -0.9833369255065918
            ],
            "type": "VEC3"
        },
        {
            "bufferView": 1,
            "byteOffset": 326784,
            "componentType": 5126,
            "count": 5472,
            "max": [
                0.9998819231987,
                0.9998819231987,
                0.9998819231987
            ],
            "min": [
                -0.9998819231987,
                -0.9998819231987,
                -0.9998819231987
            ],
            "type": "VEC3"
        }
    ],
    "materials": [
        {
            "pbrMetallicRoughness": {
                "baseColorFactor": [
                    0.6399999856948853,
                    0.6399999856948853,
                    0.6399999856948853,
                    1.0
                ],
                "metallicFactor": 0.0
            },
            "emissiveFactor": [
                0.0,
                0.0,
                0.0
            ],
            "name": "Bianco-effect"
        },
        {
            "pbrMetallicRoughness": {
                "baseColorFactor": [
                    0.013910220004618168,
                    0.013910220004618168,
                    0.013910220004618168,
                    1.0
                ],
                "metallicFactor": 0.0
            },
            "emissiveFactor": [
                0.0,
                0.0,
                0.0
            ],
            "name": "Nero_001-effect"
        }
    ],
    "bufferViews": [
        {
            "buffer": 0,
            "byteOffset": 392448,
            "byteLength": 195480,
            "target": 34963
        },
        {
            "buffer": 0,
            "byteOffset": 0,
            "byteLength": 392448,
            "byteStride": 12,
            "target": 34962
        }
    ],
    "buffers": [
        {
            "byteLength": 587928,
            "uri": "data:application/octet-stream;base64,"
        }
    ]
}
