{
  "accessors": [
    {
      "name": "Mesh1 Model_1_0_positions",
      "componentType": 5126,
      "count": 157,
      "min": [
        0,
        0,
        -0.30480000376701355
      ],
      "max": [
        0.30480000376701355,
        0.8381999731063843,
        0
      ],
      "type": "VEC3",
      "bufferView": 0,
      "byteOffset": 0
    },
    {
      "name": "Mesh1 Model_1_0_normals",
      "componentType": 5126,
      "count": 157,
      "min": [
        -1,
        -1,
        -1
      ],
      "max": [
        1,
        1,
        1
      ],
      "type": "VEC3",
      "bufferView": 1,
      "byteOffset": 0
    },
    {
      "name": "Mesh1 Model_1_0_texcoords",
      "componentType": 5126,
      "count": 157,
      "min": [
        -0.5,
        -0.375
      ],
      "max": [
        0.5,
        1.013014554977417
      ],
      "type": "VEC2",
      "bufferView": 2,
      "byteOffset": 0
    },
    {
      "name": "Mesh1 Model_1_0_indices",
      "componentType": 5123,
      "count": 276,
      "min": [
        0
      ],
      "max": [
        156
      ],
      "type": "SCALAR",
      "bufferView": 3,
      "byteOffset": 0
    },
    {
      "name": "Mesh1 Model_1_1_positions",
      "componentType": 5126,
      "count": 16,
      "min": [
        0.02539999969303608,
        0.8127999901771545,
        -0.2793999910354614
      ],
      "max": [
        0.2793999910354614,
        0.8127999901771545,
        -0.02539999969303608
      ],
      "type": "VEC3",
      "bufferView": 0,
      "byteOffset": 1884
    },
    {
      "name": "Mesh1 Model_1_1_normals",
      "componentType": 5126,
      "count": 16,
      "min": [
        0,
        -1,
        0
      ],
      "max": [
        0,
        -1,
        0
      ],
      "type": "VEC3",
      "bufferView": 1,
      "byteOffset": 1884
    },
    {
      "name": "Mesh1 Model_1_1_texcoords",
      "componentType": 5126,
      "count": 16,
      "min": [
        -11,
        -10
      ],
      "max": [
        -1,
        0
      ],
      "type": "VEC2",
      "bufferView": 2,
      "byteOffset": 1256
    },
    {
      "name": "Mesh1 Model_1_1_indices",
      "componentType": 5123,
      "count": 24,
      "min": [
        0
      ],
      "max": [
        15
      ],
      "type": "SCALAR",
      "bufferView": 3,
      "byteOffset": 552
    }
  ],
  "asset": {
    "generator": "obj2gltf",
    "version": "2.0"
  },
  "buffers": [
    {
      "name": "side-table",
      "byteLength": 13608,
      "uri": "data:application/octet-stream;base64,"
    }
  ],
  "bufferViews": [
    {
      "name": "bufferView_0",
      "buffer": 0,
      "byteLength": 2076,
      "byteOffset": 0,
      "byteStride": 12,
      "target": 34962
    },
    {
      "name": "bufferView_1",
      "buffer": 0,
      "byteLength": 2076,
      "byteOffset": 2076,
      "byteStride": 12,
      "target": 34962
    },
    {
      "name": "bufferView_2",
      "buffer": 0,
      "byteLength": 1384,
      "byteOffset": 4152,
      "byteStride": 8,
      "target": 34962
    },
    {
      "name": "bufferView_3",
      "buffer": 0,
      "byteLength": 600,
      "byteOffset": 5536,
      "target": 34963
    },
    {
      "buffer": 0,
      "byteOffset": 6136,
      "byteLength": 7471
    }
  ],
  "images": [
    {
      "name": "Wood_Bamboo",
      "mimeType": "image/jpeg",
      "bufferView": 4
    }
  ],
  "materials": [
    {
      "name": "Wood_Bamboo",
      "pbrMetallicRoughness": {
        "baseColorTexture": {
          "index": 0
        },
        "baseColorFactor": [
          1,
          1,
          1,
          1
        ],
        "metallicFactor": 0,
        "roughnessFactor": 1
      },
      "emissiveFactor": [
        0,
        0,
        0
      ],
      "alphaMode": "OPAQUE",
      "doubleSided": false
    },
    {
      "name": "FrontColor",
      "pbrMetallicRoughness": {
        "baseColorFactor": [
          1,
          1,
          1,
          1
        ],
        "metallicFactor": 0,
        "roughnessFactor": 1
      },
      "emissiveFactor": [
        0,
        0,
        0
      ],
      "alphaMode": "OPAQUE",
      "doubleSided": false
    }
  ],
  "meshes": [
    {
      "name": "Mesh1 Model_1",
      "primitives": [
        {
          "attributes": {
            "POSITION": 0,
            "NORMAL": 1,
            "TEXCOORD_0": 2
          },
          "indices": 3,
          "material": 0,
          "mode": 4
        },
        {
          "attributes": {
            "POSITION": 4,
            "NORMAL": 5,
            "TEXCOORD_0": 6
          },
          "indices": 7,
          "material": 1,
          "mode": 4
        }
      ]
    }
  ],
  "nodes": [
    {
      "name": "Mesh1 Model",
      "mesh": 0
    }
  ],
  "samplers": [
    {
      "magFilter": 9729,
      "minFilter": 9986,
      "wrapS": 10497,
      "wrapT": 10497
    }
  ],
  "scene": 0,
  "scenes": [
    {
      "nodes": [
        0
      ]
    }
  ],
  "textures": [
    {
      "name": "Wood_Bamboo",
      "sampler": 0,
      "source": 0
    }
  ]
}
